<svg width="25" height="22" viewBox="0 0 25 22" fill="none" xmlns="http://www.w3.org/2000/svg">
<path d="M22.2051 20.7089H2.57975C1.66835 20.7089 1 19.9797 1 19.1291V5.57975C1 4.72911 1.72911 4 2.57975 4H12.3924H22.2051C23.1165 4 23.7848 4.72911 23.7848 5.57975V19.0684C23.7848 19.9797 23.0557 20.7089 22.2051 20.7089Z" stroke="#0CC3E7" stroke-width="2" stroke-miterlimit="10" stroke-linecap="round" stroke-linejoin="round"/>
<path d="M12 15C13.6569 15 15 13.6569 15 12C15 10.3431 13.6569 9 12 9C10.3431 9 9 10.3431 9 12C9 13.6569 10.3431 15 12 15Z" stroke="#0CC3E7" stroke-width="2" stroke-miterlimit="10"/>
<rect x="15" y="1" width="4" height="3" stroke="#0CC3E7" stroke-width="2" stroke-linejoin="round"/>
</svg>
