<svg width="22" height="20" viewBox="0 0 22 20" fill="none" xmlns="http://www.w3.org/2000/svg">
<path d="M20.7906 13.1466H9.06283C8.95812 13.1466 8.8534 13.1466 8.8534 13.1466C7.49215 14.9267 6.13089 16.6021 4.76963 18.3822C4.66492 18.5916 4.35079 18.4869 4.35079 18.2775C4.4555 16.6021 4.4555 15.0314 4.56021 13.356C4.56021 13.2513 4.4555 13.1466 4.35079 13.1466H1.20942C1.10471 13.1466 1 13.0419 1 12.9372V1.20942C1 1.10471 1.10471 1 1.20942 1H20.7906C20.8953 1 21 1.10471 21 1.20942V12.8325C21 13.0419 20.8953 13.1466 20.7906 13.1466Z" stroke="#5E81F4" stroke-width="2" stroke-miterlimit="10" stroke-linecap="round" stroke-linejoin="round"/>
</svg>
