<svg width="119" height="162" viewBox="0 0 119 162" fill="none" xmlns="http://www.w3.org/2000/svg">
<path d="M59.557 4.27316C51.6845 4.73513 48.604 12.935 47.6912 14.7828C46.7785 16.6307 46.6644 18.7095 46.4362 20.7884C46.208 22.8672 45.9798 24.9461 44.953 26.7939C43.2416 29.5657 39.5906 31.0671 38.5637 34.1853C37.4228 37.7656 40.2751 41.4613 39.5906 45.157C39.1342 47.1203 37.7651 48.7372 37.3087 50.7005C36.7382 52.6639 37.3087 54.8582 38.3355 56.7061C40.9597 61.2102 46.208 63.4046 51.3422 63.6355C56.4765 63.8665 61.4966 62.2496 66.2885 60.7483" fill="#263238"/>
<path d="M94.0134 14.5519C93.2147 16.2842 94.0134 18.2476 95.1543 19.6335C96.4094 21.0194 98.0067 21.9433 99.3758 23.0982C100.745 24.2531 102.114 25.7545 102.228 27.6024C102.342 29.3347 101.544 30.9516 101.772 32.684C102.342 36.9571 109.188 38.343 109.53 42.6162C109.758 45.5035 106.792 48.1598 107.705 50.9315C108.047 51.971 108.846 52.7794 109.416 53.8188C111.356 57.0526 109.987 61.5567 107.248 64.0975C104.396 66.6383 100.517 67.5622 96.8657 67.6777C93.6711 67.7932 90.1342 67.3313 88.3087 64.675C86.5973 62.3652 86.9396 59.1314 87.2819 56.2441C88.8792 42.7317 88.651 28.9883 88.3087 15.3603" fill="#263238"/>
<path d="M61.6107 77.148C61.7248 69.9876 61.6107 62.5962 61.6107 62.5962C61.6107 62.5962 52.5972 60.9793 50.8858 48.9682C49.1744 37.5346 52.0268 12.935 52.0268 12.935C65.1476 7.73792 79.8657 9.70127 88.9932 20.4419L87.6241 78.1874C87.51 84.8859 81.5771 90.083 74.5033 89.852C67.3154 89.6211 61.6107 83.962 61.6107 77.148Z" fill="#FFBE9D"/>
<path d="M54.4227 31.7601C54.4227 32.5685 54.9932 33.2615 55.9059 33.3769C56.7046 33.3769 57.3892 32.7995 57.5033 31.9911C57.5033 31.1826 56.9328 30.4897 56.02 30.3742C55.2214 30.3742 54.5368 30.9516 54.4227 31.7601Z" fill="#263238"/>
<path d="M52.0268 30.6051C52.2549 30.8361 53.3959 29.9122 54.9932 30.0277C58.0737 30.4897 57.9596 30.9516 57.9596 30.7206C58.0737 30.6051 57.8455 30.2587 57.3892 29.9122C56.9328 29.5657 56.02 29.1038 54.9932 29.1038C53.9664 29.1038 53.1677 29.4502 52.5972 29.7967C52.1408 30.1432 51.9127 30.4897 52.0268 30.6051Z" fill="#263238"/>
<path d="M71.1945 32.3375C71.1945 33.1459 71.765 33.8389 72.6777 33.9544C73.4764 33.9544 74.161 33.3769 74.2751 32.5685C74.2751 31.76 73.7046 31.0671 72.7918 30.9516C71.8791 30.8361 71.1945 31.5291 71.1945 32.3375Z" fill="#263238"/>
<path d="M69.0268 31.1826C69.2549 31.4136 70.3959 30.4896 71.9932 30.6051C73.5905 30.6051 74.8455 31.4136 74.9596 31.2981C75.0737 31.1826 74.8455 30.8361 74.3892 30.4896C73.9328 30.1432 73.02 29.6812 71.9932 29.6812C70.9663 29.6812 70.1677 30.0277 69.5972 30.3742C69.1408 30.7206 68.9127 31.0671 69.0268 31.1826Z" fill="#263238"/>
<path d="M62.9798 43.0782C62.9798 42.9627 61.953 42.8472 60.3556 42.6162C59.8993 42.6162 59.557 42.5007 59.4429 42.1542C59.3288 41.8078 59.557 41.3458 59.7852 40.8838C60.2415 39.8444 60.5838 38.805 61.0402 37.6501C62.7516 33.1459 64.1207 29.3347 63.8926 29.3347C63.6644 29.2192 62.1811 32.9149 60.3556 37.4191C59.8993 38.574 59.557 39.6134 59.1006 40.6528C58.9865 41.1148 58.6442 41.6923 58.8724 42.2697C58.9865 42.6162 59.3288 42.8472 59.557 42.8472C59.7852 42.9627 60.0134 42.9627 60.2415 42.9627C61.953 43.0782 62.9798 43.0782 62.9798 43.0782Z" fill="#263238"/>
<path d="M61.6107 62.4807C61.6107 62.4807 69.5972 63.0581 77.4697 58.4385C77.4697 58.4385 73.5905 66.6383 61.7247 65.3679L61.6107 62.4807Z" fill="#EB996E"/>
<path d="M63.6644 47.0049C64.2348 46.1964 65.2617 45.85 66.2885 45.9654C66.9731 46.0809 67.6577 46.4274 68.114 47.0049C68.5704 47.5823 68.5704 48.3908 68.2281 48.9682C67.7718 49.5457 66.859 49.7767 66.0604 49.5457C65.2617 49.3147 64.5771 48.7372 64.0067 48.2753C63.7785 48.1598 63.6644 47.9288 63.5503 47.8133C63.4362 47.4668 63.4362 47.2358 63.6644 47.0049Z" fill="#EB996E"/>
<path d="M67.7718 44.2331C67.5436 44.2331 67.4295 45.9654 65.9463 47.2358C64.463 48.5062 62.5234 48.2752 62.5234 48.5062C62.5234 48.6217 62.9798 48.8527 63.7785 48.8527C64.5771 48.8527 65.7181 48.6217 66.6308 47.9288C67.5436 47.1203 68 46.0809 68 45.388C68.114 44.695 67.8859 44.2331 67.7718 44.2331Z" fill="#263238"/>
<path d="M83.859 11.8956C79.5234 18.1321 68.114 24.5996 59.8993 25.9855C60.812 24.7151 65.8322 21.5968 66.859 20.3264C63.0939 23.0982 57.8456 26.9094 52.9395 27.1404C52.3691 27.1404 51.6845 27.1404 51.2281 26.9094C50.5436 26.5629 50.4295 25.7545 50.3154 25.0616C49.9731 22.1743 50.2013 17.0927 50.6577 14.2054C51.114 11.3181 52.4832 8.43086 54.8791 6.46751C58.0738 4.0422 62.5234 3.34925 66.859 3.23376C70.3959 3.11827 74.161 3.34925 77.3556 4.61965C80.6644 5.89005 83.4026 8.54635 83.859 11.5491" fill="#263238"/>
<path d="M96.2952 39.8444C96.8657 36.7261 97.3221 33.8389 97.4362 31.8755C97.7785 25.7545 96.067 3.00277 75.0737 4.73513L74.161 11.2026C74.161 11.2026 70.9664 33.3769 84.5435 33.4924C84.5435 33.4924 85.3422 40.0754 91.5033 46.5429C91.3892 46.5429 94.9261 46.4274 96.2952 39.8444Z" fill="#263238"/>
<path d="M84.5436 33.4924C85.7986 33.2614 87.1677 33.2614 88.3087 33.8389C89.4496 34.3008 90.5905 35.2248 91.0469 36.3797C91.5033 37.5346 91.5033 38.9205 91.0469 40.1909C90.5905 41.4613 89.7919 42.5007 88.8791 43.4246C88.1946 44.1176 87.51 44.695 86.5973 44.926C85.6845 45.157 84.6576 45.0415 83.9731 44.464" fill="#FFBE9D"/>
<path d="M85.114 41.3458C84.9999 41.3458 85.4563 42.1542 86.7113 41.9232C87.2818 41.8078 87.8523 41.3458 88.1945 40.6528C88.5368 40.0754 88.765 39.3824 88.8791 38.574C88.9932 37.7656 88.765 36.9571 88.4227 36.2642C87.9664 35.6867 87.3959 35.2248 86.8254 35.2248C85.6845 35.2248 85.2281 36.0332 85.3422 36.0332C85.4563 36.1487 85.9127 35.6867 86.7113 35.9177C87.51 36.0332 88.1945 37.0726 87.9664 38.4585C87.8523 39.7289 87.2818 40.9993 86.5972 41.2303C85.6845 41.5768 85.2281 41.2303 85.114 41.3458Z" fill="#EB996E"/>
<path d="M86.8254 9.58575C88.4228 10.5097 90.3624 10.7407 92.1879 10.2787C94.0134 9.81673 95.6107 8.54633 96.5234 6.92945C97.0939 5.89004 97.4362 4.61963 97.208 3.46472C96.7516 1.84785 95.2684 0.808431 93.6711 0.346467C91.3892 -0.230988 88.765 0.346467 87.0536 1.96334C85.3422 3.58022 84.5436 6.23651 85.3422 8.54633C86.1409 10.8561 88.4228 12.473 90.8187 12.3575" fill="#263238"/>
<path d="M88.7651 44.0021C87.6241 44.8105 86.3691 45.7344 85.4563 46.8893C84.5436 48.0443 83.859 49.4302 84.0872 50.9315C84.2013 51.74 84.4295 52.5484 84.3154 53.3568C84.2013 54.5118 83.2885 55.3202 82.604 56.2441C81.1208 58.6694 81.6912 62.1342 83.6308 64.213C85.5704 66.2918 88.5369 67.3313 91.3892 67.4467C93.1006 67.4467 94.812 67.2158 96.1812 66.2918C98.1208 64.9059 98.9194 62.2496 98.9194 59.8243" fill="#263238"/>
<path d="M90.1342 14.3209C90.2483 14.3209 89.7919 15.2448 88.8792 16.5152C87.9664 17.7856 86.5973 19.4025 84.8859 21.0194C83.0604 22.5207 81.2349 23.6756 79.8657 24.3686C78.4966 25.0615 77.5839 25.2925 77.5839 25.2925C77.4698 25.0615 81.0067 23.6756 84.5436 20.5574C87.9664 17.4391 90.0201 14.2054 90.1342 14.3209Z" fill="#455A64"/>
<path d="M92.302 14.2054C92.4161 14.2054 92.302 15.3603 91.9597 17.0927C91.5033 18.825 90.7047 21.2504 89.3356 23.6757C87.8523 26.101 86.255 27.9488 84.8859 29.1037C83.5168 30.2586 82.604 30.8361 82.4899 30.8361C82.3758 30.7206 86.0268 28.0643 88.8792 23.3292C91.6174 18.7095 92.0738 14.0899 92.302 14.2054Z" fill="#455A64"/>
<path d="M46.6644 23.7911C46.8925 23.7911 47.1207 25.7545 47.6912 28.1798C48.3758 30.4896 49.1744 32.3375 49.0603 32.453C48.9462 32.5685 47.8053 30.8361 47.1207 28.4108C46.5503 25.87 46.5503 23.7911 46.6644 23.7911Z" fill="#455A64"/>
<path d="M97.0939 64.675C97.0939 64.5595 97.6644 65.2524 98.8053 65.2524C99.3758 65.2524 100.174 65.1369 100.859 64.5595C101.544 64.0975 102.114 63.2891 102.342 62.2497C102.57 61.2102 102.57 60.0553 102.342 58.7849C102.114 57.5145 101.658 56.2441 101.201 54.8582C100.745 53.4723 100.403 51.8555 100.745 50.2386C100.973 48.5062 102.114 47.1203 102.57 45.619C103.141 44.1176 102.913 42.3852 102.228 41.1148C101.544 39.6134 100.403 38.6895 99.0335 38.112C98.3489 37.8811 97.6644 37.5346 97.0939 37.1881C96.5234 36.8416 95.8389 36.3797 95.4966 35.8022C94.812 34.5318 94.812 33.2614 94.812 32.222C94.812 31.0671 94.9261 30.1432 94.6979 29.3347C94.4697 28.5263 94.2415 27.8333 93.7852 27.3714C92.9865 26.4475 92.1879 26.4474 92.3019 26.4474C92.3019 26.4474 92.5301 26.4474 92.7583 26.4474C93.1006 26.5629 93.557 26.7939 94.0134 27.2559C94.4697 27.7179 94.812 28.4108 95.0402 29.3347C95.2684 30.2587 95.2684 31.2981 95.2684 32.3375C95.2684 33.3769 95.2684 34.6473 95.9529 35.6867C96.6375 36.7261 97.8925 37.1881 99.2617 37.7656C100.631 38.2275 102 39.3824 102.684 40.8838C103.369 42.3852 103.711 44.2331 103.027 45.8499C102.456 47.4668 101.429 48.8527 101.201 50.3541C100.973 51.8555 101.315 53.3568 101.658 54.7427C102.114 56.1286 102.57 57.5145 102.799 58.7849C103.027 60.0553 103.027 61.3257 102.684 62.4806C102.342 63.6355 101.772 64.444 100.973 65.0214C100.174 65.4834 99.3758 65.7144 98.8053 65.5989C98.1207 65.5989 97.6644 65.3679 97.4362 65.1369C97.0939 64.7905 97.0939 64.675 97.0939 64.675Z" fill="#455A64"/>
<path d="M88.7651 63.8665C88.7651 63.8665 88.8792 64.213 89.4496 64.444C89.906 64.675 91.0469 64.675 91.6174 63.8665C92.1879 62.9426 92.1879 61.5567 91.3892 60.2863C90.7047 59.0159 89.4496 57.7455 89.1074 55.7821C88.8792 54.8582 89.1073 53.8188 89.7919 53.1259C90.3624 52.4329 91.0469 51.9709 91.3892 51.3935C92.302 50.2386 92.302 48.8527 92.1879 47.6978C92.0738 46.5429 91.7315 45.7344 91.5033 45.0415C91.2751 44.464 91.161 44.1176 91.2751 44.1176C91.2751 44.1176 91.5033 44.464 91.7315 45.0415C91.9597 45.6189 92.4161 46.5429 92.5302 47.6978C92.7583 48.8527 92.7584 50.4696 91.7315 51.74C91.2751 52.4329 90.5906 52.8949 90.1342 53.4723C89.6778 54.0498 89.4496 54.8582 89.6778 55.6667C89.906 57.2835 91.161 58.5539 91.8456 60.0553C92.5302 61.4412 92.6443 63.1736 91.8456 64.213C91.5033 64.7904 90.8188 65.0214 90.3624 65.0214C89.906 65.0214 89.4496 65.0214 89.1074 64.7904C88.7651 64.3285 88.7651 63.8665 88.7651 63.8665Z" fill="#455A64"/>
<path d="M44.0402 60.8637C44.0402 60.8637 43.6979 60.5173 43.1275 59.9398C42.557 59.2469 41.7583 58.3229 41.1879 56.9371C40.8456 56.2441 40.7315 55.3202 40.7315 54.3962C40.7315 53.4723 41.0738 52.4329 41.7583 51.6245C42.4429 50.816 43.4698 50.3541 44.1543 49.5456C44.8389 48.7372 44.8389 47.6978 44.6107 46.5429C44.3825 45.5034 43.812 44.464 43.3557 43.5401C42.8993 42.6162 42.4429 41.5767 42.2147 40.5373C41.9865 39.4979 42.2147 38.343 42.7852 37.6501C43.3557 36.8416 43.9261 36.3797 44.4966 35.8022C45.6375 34.8783 46.3221 33.8388 46.4362 33.0304C46.5503 32.222 46.3221 31.76 46.4362 31.76C46.4362 31.76 46.5503 31.8755 46.6644 32.1065C46.7785 32.3375 46.7785 32.6839 46.7785 33.1459C46.6644 34.0698 45.9798 35.2247 44.8389 36.2642C44.2684 36.8416 43.6979 37.3036 43.2416 38.112C42.7852 38.805 42.557 39.7289 42.7852 40.6528C42.8993 41.5767 43.3557 42.5007 43.9261 43.5401C44.3825 44.464 44.953 45.5034 45.2953 46.7738C45.5234 47.9288 45.5234 49.3146 44.7248 50.2386C43.9261 51.1625 42.8993 51.509 42.3288 52.3174C41.7583 53.0104 41.4161 53.9343 41.4161 54.7427C41.4161 55.5512 41.5302 56.3596 41.7583 57.0525C42.3288 58.4384 43.0134 59.3624 43.5839 60.0553C43.812 60.4018 44.1543 60.8637 44.0402 60.8637Z" fill="#455A64"/>
<path d="M91.6174 11.0871C91.5033 11.2026 90.7047 9.35477 88.8792 8.08437C87.0537 6.69847 85.2281 6.352 85.2281 6.23651C85.2281 6.12102 87.2818 6.12102 89.2214 7.6224C91.161 9.00829 91.8456 11.0871 91.6174 11.0871Z" fill="#E8505B"/>
<path d="M93.3288 0C93.4429 0 93.7852 0.461964 94.1275 1.2704C94.4697 2.19433 94.5838 3.46473 94.2416 4.96611C93.8993 6.352 92.9865 7.50691 92.302 8.08437C91.6174 8.66182 91.0469 8.89281 91.0469 8.77732C91.0469 8.66182 91.5033 8.43084 92.0738 7.7379C92.6442 7.04495 93.3288 6.12102 93.7852 4.85062C94.1275 3.58022 94.0134 2.30982 93.8993 1.50138C93.4429 0.577455 93.2147 0 93.3288 0Z" fill="#455A64"/>
<path d="M8.5 140L24.0738 103.325L43.698 115.798L30 140C30 140 25.5 140 8.5 140Z" fill="#EB996E"/>
<path d="M40.7315 77.379C49.859 72.5283 61.6107 71.1424 61.6107 71.1424C65.0335 78.0719 75.8724 78.9958 82.3758 74.2607L87.8523 70.4495C87.8523 70.4495 88.651 70.4495 90.1342 70.565C103.027 71.7199 113.638 81.4211 116.262 94.3561C117.174 98.9758 117.973 104.404 117.631 109.37C116.946 121.958 104.054 123.113 104.054 123.113C104.054 123.113 103.799 128.952 103 139C96 139 98.1208 138.382 91.2751 141.5C86.255 143.81 90.8125 139 74 139C49.5 139 59.5 139 43 139C44.9396 126.989 37.8792 123.806 37.651 123.113C37.651 122.998 37.651 122.882 37.651 122.882L24.8724 111.333L17.5704 105.212C17.6845 105.212 33.5436 81.3057 40.7315 77.379Z" fill="#5E81F4"/>
<path d="M56.5906 85.1169C56.5906 85.2324 55.4497 84.1929 53.396 84.1929C52.3691 84.1929 51.1141 84.5394 50.0873 85.3478C49.6309 85.8098 49.1745 86.3873 48.604 86.9647C48.1477 87.5422 47.4631 88.2351 46.5503 88.3506C45.6376 88.5816 44.7248 88.1196 44.1544 87.6577C43.4698 87.1957 42.8993 86.7337 42.3289 86.3873C41.1879 85.6943 39.9329 85.8098 39.0201 86.0408C38.1074 86.3873 37.4228 86.9647 37.0805 87.4267C36.7383 87.8887 36.6242 88.2351 36.5101 88.1196C36.5101 88.1196 36.5101 87.7732 36.8524 87.1957C37.1946 86.7337 37.7651 86.0408 38.7919 85.5788C39.8188 85.1169 41.302 85.0014 42.557 85.8098C43.2416 86.1563 43.8121 86.6183 44.3826 86.9647C44.953 87.3112 45.6376 87.6577 46.3221 87.5422C47.0067 87.4267 47.5772 86.8492 48.0336 86.3873C48.4899 85.8098 48.9463 85.2324 49.6309 84.7704C50.7718 83.8465 52.1409 83.6155 53.2819 83.6155C54.4228 83.6155 55.2215 83.962 55.6779 84.3084C56.3624 84.8859 56.5906 85.1169 56.5906 85.1169Z" fill="#FAFAFA" fill-opacity="0.8"/>
<path d="M69.5973 102.325C69.4832 102.441 68.7986 101.17 66.859 100.477C65.9463 100.131 64.6913 100.015 63.4362 100.477C62.8658 100.708 62.1812 101.17 61.6107 101.517C60.9262 101.863 60.1275 102.325 59.2147 102.21C58.302 102.094 57.6174 101.401 57.1611 100.824C56.7047 100.246 56.2483 99.5532 55.7919 99.0913C54.9933 98.0519 53.7382 97.7054 52.7114 97.7054C51.6846 97.7054 50.8859 98.0519 50.4295 98.3983C49.9731 98.7448 49.745 98.9758 49.6309 98.9758C49.6309 98.9758 49.745 98.6293 50.2013 98.2828C50.6577 97.9364 51.4564 97.4744 52.5973 97.3589C53.6241 97.2434 55.1074 97.5899 56.1342 98.7448C56.5906 99.3223 57.047 99.8997 57.5033 100.477C57.9597 101.055 58.5302 101.517 59.2147 101.632C59.8993 101.748 60.5839 101.401 61.2684 101.055C61.953 100.708 62.5235 100.246 63.208 100.015C64.5772 99.5532 65.9463 99.6687 66.9731 100.131C68 100.477 68.6845 101.17 69.0268 101.632C69.4832 101.979 69.5973 102.325 69.5973 102.325Z" fill="#FAFAFA" fill-opacity="0.8"/>
<path d="M98.4631 77.148C98.4631 77.2635 97.2081 76.5705 95.1544 76.917C94.1275 77.148 92.9866 77.7254 92.1879 78.7649C91.7316 79.2268 91.5034 79.9198 91.047 80.6127C90.7047 81.3057 90.1342 81.9986 89.3356 82.4606C88.4228 82.807 87.5101 82.5761 86.8255 82.3451C86.1409 82.1141 85.4564 81.7676 84.7718 81.5366C83.5168 81.0747 82.2618 81.4211 81.4631 81.9986C80.5503 82.5761 80.094 83.269 79.8658 83.731C79.6376 84.1929 79.5235 84.5394 79.5235 84.5394C79.5235 84.5394 79.5235 84.1929 79.6376 83.6155C79.8658 83.038 80.3222 82.2296 81.2349 81.6521C82.1477 81.0747 83.5168 80.6127 85 81.0747C85.6846 81.3057 86.3691 81.6521 87.0537 81.8831C87.7383 82.1141 88.4228 82.2296 89.1074 81.9986C89.792 81.7676 90.2483 81.0747 90.5906 80.4972C90.9329 79.8043 91.2752 79.1113 91.7316 78.5339C92.6443 77.379 94.0134 76.8015 95.0403 76.686C96.0671 76.455 96.9799 76.686 97.5503 76.8015C98.2349 76.917 98.4631 77.0325 98.4631 77.148Z" fill="#FAFAFA" fill-opacity="0.8"/>
<path d="M85.1141 96.0885C85 96.204 84.5436 95.1646 83.0604 94.5871C82.3758 94.3561 81.349 94.2406 80.4362 94.4716C79.9799 94.5871 79.5235 94.9336 78.953 95.1646C78.3825 95.3955 77.8121 95.742 77.0134 95.6265C76.3289 95.511 75.7584 94.9336 75.4161 94.4716C75.0738 94.0097 74.7315 93.4322 74.5034 93.0857C73.9329 92.2773 73.0201 91.9308 72.2215 91.9308C70.6242 91.9308 69.9396 92.7393 69.8255 92.7393C69.8255 92.7393 69.9396 92.5083 70.2819 92.1618C70.6242 91.9308 71.3087 91.5844 72.2215 91.5844C73.0201 91.5844 74.1611 91.9308 74.9597 92.8547C75.302 93.3167 75.6443 93.7787 75.9866 94.2406C76.3289 94.7026 76.6711 95.0491 77.2416 95.1646C78.2685 95.3955 79.2953 94.3561 80.3221 94.1251C81.4631 93.7787 82.4899 94.0096 83.2886 94.3561C84.7718 94.9336 85.2282 96.0885 85.1141 96.0885Z" fill="#FAFAFA" fill-opacity="0.8"/>
<path d="M55.6779 112.026C55.5638 112.142 55.1074 111.102 53.6242 110.525C52.9396 110.294 51.9128 110.178 51 110.409C50.5436 110.525 50.0873 110.871 49.5168 111.102C48.9463 111.333 48.3759 111.68 47.5772 111.564C46.8926 111.449 46.3222 110.871 45.9799 110.409C45.6376 109.947 45.2953 109.37 45.0671 109.023C44.4967 108.215 43.5839 107.869 42.7853 107.869C41.1879 107.869 40.5034 108.677 40.3893 108.677C40.3893 108.677 40.5034 108.446 40.8457 108.1C41.1879 107.869 41.8725 107.522 42.7853 107.522C43.5839 107.522 44.7249 107.869 45.5235 108.792C45.8658 109.254 46.2081 109.716 46.5504 110.178C46.8926 110.64 47.2349 110.987 47.8054 111.102C48.8322 111.333 49.8591 110.294 50.8859 110.063C52.0269 109.716 53.0537 109.947 53.8524 110.294C55.4497 110.871 55.792 112.026 55.6779 112.026Z" fill="#FAFAFA" fill-opacity="0.8"/>
<path d="M83.1745 112.373C83.1745 112.488 82.3758 111.68 80.7785 111.68C79.9799 111.68 79.0671 111.795 78.2684 112.488C77.9262 112.835 77.4698 113.181 77.1275 113.643C76.6711 114.105 76.2148 114.567 75.4161 114.683C74.6174 114.798 74.047 114.452 73.4765 114.105C73.0201 113.759 72.5638 113.412 72.1074 113.066C71.3087 112.488 70.2819 112.488 69.5973 112.719C68.1141 113.181 67.6577 114.336 67.6577 114.221C67.6577 114.221 67.6577 113.99 67.8859 113.528C68.1141 113.181 68.6846 112.604 69.4832 112.257C70.2819 111.911 71.4228 111.911 72.4497 112.488C72.906 112.835 73.3624 113.181 73.8188 113.528C74.2752 113.874 74.7315 114.105 75.302 113.99C76.3288 113.874 77.0134 112.604 77.9262 111.911C78.8389 111.218 79.9799 111.102 80.7785 111.102C82.4899 111.449 83.2886 112.373 83.1745 112.373Z" fill="#FAFAFA" fill-opacity="0.8"/>
<path d="M74.1611 125.077C74.1611 125.192 73.3624 124.384 71.7651 124.384C70.9664 124.384 70.0537 124.499 69.255 125.192C68.9127 125.539 68.4564 125.885 68.1141 126.347C67.6577 126.809 67.2013 127.271 66.4027 127.387C65.604 127.502 65.0335 127.156 64.4631 126.809C64.0067 126.463 63.5503 126.116 63.0939 125.77C62.2953 125.192 61.2684 125.192 60.5839 125.423C59.1007 125.885 58.6443 127.04 58.6443 126.925C58.6443 126.925 58.6443 126.694 58.8725 126.232C59.1007 125.885 59.6711 125.308 60.4698 124.961C61.2684 124.615 62.4094 124.615 63.4362 125.192C63.8926 125.539 64.349 125.885 64.8054 126.232C65.2617 126.578 65.7181 126.809 66.2886 126.694C67.3154 126.578 68 125.308 68.9127 124.615C69.8255 123.922 70.9664 123.806 71.7651 123.806C73.4765 124.037 74.1611 125.077 74.1611 125.077Z" fill="#FAFAFA" fill-opacity="0.8"/>
<path d="M3.53691 67.7932C4.22148 68.6017 29.3221 102.556 29.3221 102.556L25.7852 104.635L0 71.027L3.53691 67.7932Z" fill="#263238"/>
<path d="M101.429 91.9308C101.429 91.9308 77.9261 133.046 76.3288 133.739C73.2483 135.24 37.0805 103.595 33.6577 100.593C33.2013 99.8997 32.1745 98.6293 30.2349 95.8575C30.2349 95.8575 27.3825 82.6915 24.302 83.7309C21.2214 84.7704 26.0134 90.4294 23.9597 95.3955C22.0201 100.362 12.8926 88.4661 12.5503 87.4267L10.2684 84.3084C10.2684 84.3084 7.87246 91.3533 7.98655 94.2406C8.55702 103.711 17.3423 114.798 17.3423 114.798C17.3423 114.798 53.0537 160.186 80.208 161.687C87.9664 162.149 102.913 139.398 112.154 122.651C117.745 112.488 115.121 102.209 105.879 95.3955L101.429 91.9308Z" fill="#FFBE9D"/>
<path d="M12.4362 96.0885C12.3222 96.0885 11.4094 94.7026 10.3826 92.7393C9.4698 90.7759 8.89933 89.1591 9.01343 89.1591C9.12752 89.1591 9.81209 90.7759 10.7248 92.6238C11.6376 94.4716 12.5503 95.973 12.4362 96.0885Z" fill="#EB996E"/>
<path d="M101.289 80.4972C100.376 81.0747 78.4698 122.189 78.4698 122.189L106.651 144.479C106.651 144.479 113.953 126.232 117.832 111.333C118.859 107.291 118.289 96.5505 116.805 92.3928C109.5 77 111.557 88.0041 106.765 84.5394L101.289 80.4972Z" fill="#5E81F4"/>
<path d="M101.5 140H108.5L109.5 143L106.5 145.5L101 141.5L101.5 140Z" fill="white"/>
<g opacity="0.7">
<path opacity="0.7" d="M108.732 80.0352C109.302 80.3817 109.53 80.4972 109.53 80.4972L109.074 80.3817C108.96 80.3817 108.732 80.1507 108.503 80.0352C108.392 79.9505 108.253 79.8657 108.09 79.786C108.331 79.8706 108.544 79.9592 108.732 80.0352Z" fill="black"/>
</g>
<path d="M101.087 119.071C100.973 119.187 100.517 118.147 99.0336 117.57C98.349 117.339 97.3221 117.223 96.4094 117.454C95.953 117.57 95.4966 117.916 94.9262 118.147C94.3557 118.378 93.7852 118.725 92.9866 118.609C92.302 118.494 91.7315 117.916 91.3893 117.454C91.047 116.992 90.7047 116.415 90.4765 116.068C89.906 115.26 88.9933 114.914 88.1946 114.914C86.5973 114.914 85.9127 115.722 85.7986 115.722C85.7986 115.722 85.9127 115.491 86.255 115.145C86.5973 114.914 87.2819 114.567 88.1946 114.567C88.9933 114.567 90.1342 114.914 90.9329 115.837C91.2752 116.299 91.6174 116.761 91.9597 117.223C92.302 117.685 92.6443 118.032 93.2148 118.147C94.2416 118.378 95.2685 117.339 96.2953 117.108C97.4362 116.761 98.4631 116.992 99.2617 117.339C100.859 117.916 101.201 119.071 101.087 119.071Z" fill="#FAFAFA" fill-opacity="0.8"/>
<path d="M113.98 113.759C113.866 113.759 113.638 112.719 112.383 111.795C111.812 111.333 110.899 110.987 109.873 110.987C109.416 110.987 108.846 111.218 108.275 111.333C107.705 111.449 107.02 111.564 106.336 111.218C105.651 110.871 105.309 110.178 105.081 109.601C104.852 109.023 104.738 108.446 104.51 107.984C104.168 107.06 103.369 106.483 102.57 106.252C101.087 105.79 100.06 106.483 100.06 106.367C100.06 106.367 100.175 106.136 100.631 106.021C101.087 105.79 101.772 105.674 102.57 105.905C103.369 106.136 104.396 106.714 104.852 107.869C105.081 108.446 105.195 108.908 105.423 109.485C105.651 110.063 105.879 110.525 106.336 110.756C107.248 111.218 108.503 110.525 109.644 110.525C110.785 110.525 111.812 110.987 112.383 111.564C113.98 112.604 114.094 113.759 113.98 113.759Z" fill="#FAFAFA" fill-opacity="0.8"/>
<path d="M114.664 96.7815C114.55 96.7815 114.322 95.742 113.067 94.8181C112.497 94.3561 111.584 94.0097 110.557 94.0097C110.101 94.0097 109.53 94.2407 108.96 94.3561C108.389 94.4716 107.705 94.5871 107.02 94.2407C106.336 93.8942 105.993 93.2012 105.765 92.6238C105.537 92.0463 105.423 91.4689 105.195 91.0069C104.852 90.083 104.054 89.5055 103.255 89.2745C101.772 88.8126 100.745 89.5055 100.745 89.39C100.745 89.39 100.859 89.159 101.315 89.0435C101.772 88.8126 102.456 88.6971 103.255 88.9281C104.054 89.159 105.081 89.7365 105.537 90.8914C105.765 91.4689 105.879 91.9308 106.107 92.5083C106.336 93.0857 106.564 93.5477 107.02 93.7787C107.933 94.2407 109.188 93.5477 110.329 93.5477C111.47 93.5477 112.497 94.0097 113.067 94.5871C114.664 95.6265 114.779 96.7815 114.664 96.7815Z" fill="#FAFAFA" fill-opacity="0.8"/>
<path d="M108.389 135.817C108.275 135.817 108.047 134.778 106.792 133.854C106.221 133.392 105.309 133.046 104.282 133.046C103.825 133.046 103.255 133.277 102.685 133.392C102.114 133.508 101.43 133.623 100.745 133.277C100.06 132.93 99.7181 132.237 99.4899 131.66C99.2617 131.082 99.1476 130.505 98.9194 130.043C98.5772 129.119 97.7785 128.541 96.9798 128.311C95.4966 127.849 94.4698 128.541 94.4698 128.426C94.4698 128.426 94.5839 128.195 95.0403 128.08C95.4966 127.849 96.1812 127.733 96.9798 127.964C97.7785 128.195 98.8054 128.772 99.2617 129.927C99.4899 130.505 99.604 130.967 99.8322 131.544C100.06 132.122 100.289 132.584 100.745 132.815C101.658 133.277 102.913 132.584 104.054 132.584C105.195 132.584 106.221 133.046 106.792 133.623C108.503 134.663 108.503 135.933 108.389 135.817Z" fill="#FAFAFA" fill-opacity="0.8"/>
</svg>
