<svg width="24" height="24" viewBox="0 0 24 24" fill="none" xmlns="http://www.w3.org/2000/svg">
<path d="M22.4992 10.5525L20.7035 10.1738C20.4836 10.1249 20.3004 9.95391 20.2393 9.73404C20.0439 9.03776 19.7751 8.36591 19.4209 7.74292C19.3109 7.54747 19.3109 7.30317 19.4453 7.10772L20.447 5.56857C20.6058 5.32426 20.5691 5.00666 20.3615 4.799L19.1766 3.6141C18.9689 3.40644 18.6513 3.38201 18.407 3.5286L16.8679 4.54248C16.6724 4.66463 16.4281 4.67685 16.2326 4.56691C15.6097 4.21266 14.9378 3.9317 14.2415 3.74847C14.0217 3.6874 13.8506 3.50416 13.8018 3.28429L13.4353 1.48862C13.3742 1.20766 13.1177 1 12.8368 1H11.151C10.8701 1 10.6135 1.20766 10.5525 1.48862L10.1738 3.28429C10.1249 3.50416 9.96613 3.6874 9.74625 3.74847C9.04997 3.9317 8.37812 4.21266 7.75514 4.56691C7.55969 4.67685 7.30317 4.67685 7.11993 4.54248L5.58079 3.54081C5.33648 3.38201 5.01888 3.41866 4.81122 3.62632L3.62632 4.81122C3.41866 5.01888 3.38201 5.33648 3.54081 5.58079L4.54248 7.11993C4.66463 7.31538 4.67685 7.55969 4.56691 7.75514C4.21266 8.37812 3.9317 9.04997 3.74847 9.74625C3.6874 9.96613 3.50416 10.1249 3.28429 10.1738L1.48862 10.5525C1.20766 10.6135 1 10.8579 1 11.151V12.8368C1 13.1299 1.20766 13.3742 1.48862 13.4353L3.28429 13.814C3.50416 13.8629 3.6874 14.0339 3.74847 14.2537C3.94392 14.95 4.21266 15.6219 4.56691 16.2449C4.67685 16.4403 4.67685 16.6846 4.54248 16.8801L3.54081 18.4192C3.38201 18.6635 3.41866 18.9811 3.62632 19.1888L4.81122 20.3737C5.01888 20.5813 5.33648 20.6058 5.58079 20.4592L7.11993 19.4575C7.31538 19.3354 7.55969 19.3232 7.75514 19.4331C8.37812 19.7873 9.04997 20.0683 9.74625 20.2515C9.96613 20.3126 10.1371 20.4958 10.186 20.7157L10.5647 22.5114C10.6135 22.7801 10.8701 22.9878 11.151 22.9878H12.8368C13.1299 22.9878 13.3742 22.7801 13.4353 22.4992L13.814 20.7035C13.8629 20.4836 14.0339 20.3004 14.2537 20.2393C14.95 20.0439 15.6219 19.7751 16.2449 19.4209C16.4403 19.3109 16.6846 19.3109 16.8801 19.4453L18.4192 20.447C18.6635 20.6058 18.9811 20.5691 19.1888 20.3615L20.3737 19.1766C20.5813 18.9689 20.6058 18.6513 20.4592 18.407L19.4575 16.8679C19.3354 16.6724 19.3232 16.4281 19.4331 16.2326C19.7873 15.6097 20.0683 14.9378 20.2515 14.2415C20.3126 14.0217 20.4958 13.8506 20.7157 13.8018L22.5114 13.4231C22.7923 13.362 23 13.1177 23 12.8245V11.151C22.9878 10.8579 22.7801 10.6135 22.4992 10.5525ZM11.9939 15.6585C9.96613 15.6585 8.32926 14.0217 8.32926 11.9939C8.32926 9.96613 9.96613 8.32926 11.9939 8.32926C14.0217 8.32926 15.6585 9.96613 15.6585 11.9939C15.6585 14.0217 14.0217 15.6585 11.9939 15.6585Z" stroke="#C7CADD" stroke-width="2"/>
</svg>
